<svg width="520" height="87" viewBox="0 0 520 87" fill="none" xmlns="http://www.w3.org/2000/svg">
<path d="M125.009 24.5241C125.009 27.5625 122.839 29.7328 119.583 29.7328C116.328 29.7328 114.158 27.7796 114.158 24.5241C114.158 21.4857 116.328 19.3154 119.583 19.3154C122.839 19.3154 125.009 21.4857 125.009 24.5241ZM114.809 71.1854V33.4223H124.575V71.1854H114.809Z" fill="#6E7577"/>
<path d="M191.853 71.1858H182.087V48.3977C182.087 43.189 182.087 36.6782 182.304 31.6865C181.002 36.8952 179.265 43.4061 177.746 48.3977L170.801 71.1858H160.167L153.222 48.3977C151.703 43.4061 149.966 36.8952 148.881 31.9035C149.098 37.1122 149.098 43.4061 149.098 48.6148V71.1858H139.332V22.1372H154.741L165.81 62.0706L176.878 22.1372H192.07V71.1858H191.853Z" fill="#6E7577"/>
<path d="M241.119 52.3034C241.119 63.8059 234.175 72.2701 221.587 72.2701C208.999 72.2701 202.054 63.8059 202.054 52.3034C202.054 40.8008 208.999 32.3367 221.587 32.3367C233.957 32.3367 241.119 40.8008 241.119 52.3034ZM230.919 52.3034C230.919 44.0563 227.447 39.2816 221.587 39.2816C215.727 39.2816 212.255 44.0563 212.255 52.3034C212.255 60.3334 215.727 65.3251 221.587 65.3251C227.447 65.1081 230.919 60.3334 230.919 52.3034Z" fill="#6E7577"/>
<path d="M286.478 49.916V71.1849H276.711V51.2182C276.711 49.699 276.712 47.9628 276.494 46.0095C276.277 42.103 274.107 39.2816 269.333 39.2816C264.558 39.2816 260.868 43.4052 260.868 53.8226V70.9679H251.102V33.4218H260.868V39.4986L263.69 34.941C266.294 32.9878 269.115 32.3367 272.805 32.3367C280.835 32.3367 285.393 36.2432 286.261 42.9711C286.478 44.9244 286.478 46.6606 286.478 49.916Z" fill="#6E7577"/>
<path d="M354.842 57.5128C354.842 58.815 354.842 59.9002 354.842 60.7683C355.059 64.4578 356.578 65.3259 362.004 64.8918V71.1857C359.833 71.6197 357.663 71.6197 355.493 71.6197C348.114 71.6197 345.509 69.2324 345.075 63.8067C345.075 62.5045 345.075 60.7683 345.075 58.598V39.9335H339.433V33.4226H345.075V24.0903H354.842V33.4226H362.655V39.9335H354.842V57.5128Z" fill="#6E7577"/>
<path d="M382.622 24.5241C382.622 27.5625 380.452 29.7328 377.197 29.7328C373.941 29.7328 371.771 27.7796 371.771 24.5241C371.771 21.4857 373.941 19.3154 377.197 19.3154C380.452 19.3154 382.622 21.4857 382.622 24.5241ZM372.422 71.1854V33.4223H382.188V71.1854H372.422Z" fill="#6E7577"/>
<path d="M423.425 71.185H392.173V65.1082L412.574 40.3668H393.475V33.856H423.208V40.3668L402.807 64.8911H423.425V71.185Z" fill="#6E7577"/>
<path d="M467.698 54.6907H440.787C441.438 62.7208 444.91 65.1081 449.468 65.1081C453.591 65.1081 456.63 62.7208 457.281 58.8142H467.047C465.094 67.7124 457.932 72.053 449.251 72.053C438.833 72.053 430.803 65.5421 430.803 52.3034C430.803 40.8008 438.399 32.3367 449.902 32.3367C461.404 32.3367 467.197 41.1316 467.481 51.4352C467.698 52.9647 467.698 53.5488 467.698 54.6907ZM441.221 48.3968H457.932C457.281 42.537 454.676 39.2816 449.902 39.2816C445.127 39.2816 442.089 42.103 441.221 48.3968Z" fill="#6E7577"/>
<path d="M478.115 71.1854V19.3154H482.998H487.882V71.1854H478.115Z" fill="#00A3D3"/>
<path d="M512.19 57.5123C512.19 58.8145 512.19 59.8997 512.19 60.7678C512.407 64.4573 513.926 65.3254 519.352 64.8913V71.1852C517.181 71.6192 515.011 71.6192 512.841 71.6192C505.462 71.6192 502.857 69.2319 502.423 63.8062C502.206 62.0699 502.206 60.5507 502.206 58.3805V39.7159H496.998V33.2051H502.64V23.8728H512.407V33.2051H520.22V39.7159H512.19V57.5123Z" fill="#00A3D3"/>
<path d="M333.354 54.9492H306.443C307.094 62.9793 310.566 65.3666 315.124 65.3666C319.248 65.3666 322.286 62.9793 322.937 59.0728H332.703C330.75 67.971 323.588 72.3116 314.907 72.3116C304.49 72.3116 296.459 65.8007 296.459 52.5619C296.459 41.0594 304.055 32.5952 315.558 32.5952C327.061 32.5952 332.853 41.3901 333.137 51.6938C333.354 53.2232 333.354 53.8073 333.354 54.9492ZM306.877 48.6554H323.588C322.937 42.7956 320.333 39.5402 315.558 39.5402C310.783 39.5402 307.745 42.3615 306.877 48.6554Z" fill="#6E7577"/>
<path d="M77.4794 69.6661C76.6113 74.2238 72.4878 77.9133 67.4961 77.9133H19.0986C13.4558 77.9133 8.8982 73.3557 8.8982 67.7129V19.3154C8.8982 14.3237 12.5877 10.2001 17.3623 9.33203V0.216797H13.0218C5.64276 0.216797 0 5.85956 0 13.0215V74.0067C0 81.1687 5.64276 86.8115 12.8047 86.8115H73.7899C80.9519 86.8115 86.5947 81.1687 86.5947 74.0067V69.6661H77.4794Z" fill="#00A3D3"/>
<path d="M63.1542 0.216797H86.8104V23.873L81.1677 18.4473L30.1658 69.6661H17.144V57.0785L67.4948 5.85956L63.1542 0.216797Z" fill="#5FB946"/>
<path d="M17.1445 43.4058L60.1163 0H34.5069L39.7156 5.64276L17.1445 28.4308V43.4058Z" fill="#46B99A"/>
<path d="M43.4043 69.6671L86.8101 26.6953V52.3048L81.1674 47.0961L58.3793 69.6671H43.4043Z" fill="#46B99A"/>
</svg>
