<svg width="129" height="27" viewBox="0 0 129 27" fill="none" xmlns="http://www.w3.org/2000/svg">
<path d="M46.5076 0.612549V5.39532H39.8706V25.9757H35.0246V5.39532H28.4227V0.612549H46.5076Z" fill="black"/>
<path d="M51.3021 10.9752C51.7235 9.81573 52.4141 8.94611 53.374 8.36641C54.3572 7.78669 55.4458 7.49683 56.6398 7.49683V12.7144C55.2585 12.5453 54.0177 12.8352 52.9174 13.5839C51.8405 14.3328 51.3021 15.5768 51.3021 17.316V25.9756H46.7721V7.85915H51.3021V10.9752Z" fill="black"/>
<path d="M71.9824 7.85931H76.5124V25.9758H71.9824V23.8381C70.6246 25.6014 68.7166 26.4831 66.2585 26.4831C63.9174 26.4831 61.9041 25.5652 60.2184 23.7294C58.5563 21.8694 57.7252 19.5988 57.7252 16.9176C57.7252 14.2363 58.5563 11.9778 60.2184 10.142C61.9041 8.28203 63.9174 7.35205 66.2585 7.35205C68.7166 7.35205 70.6246 8.23372 71.9824 9.99703V7.85931ZM63.6247 20.6134C64.5377 21.5554 65.6966 22.0264 67.1012 22.0264C68.5059 22.0264 69.6647 21.5554 70.5778 20.6134C71.5142 19.6471 71.9824 18.4152 71.9824 16.9176C71.9824 15.4199 71.5142 14.2001 70.5778 13.258C69.6647 12.2918 68.5059 11.8088 67.1012 11.8088C65.6966 11.8088 64.5377 12.2918 63.6247 13.258C62.7117 14.2001 62.2552 15.4199 62.2552 16.9176C62.2552 18.4152 62.7117 19.6471 63.6247 20.6134Z" fill="black"/>
<path d="M95.3185 18.8379C95.9277 21.1085 97.578 22.2439 100.271 22.2439C102.003 22.2439 103.314 21.64 104.204 20.4321L107.855 22.6062C106.123 25.1908 103.571 26.4831 100.2 26.4831C97.2974 26.4831 94.9677 25.5773 93.2121 23.7656C91.4565 21.954 90.5778 19.6713 90.5778 16.9176C90.5778 14.188 91.4445 11.9174 93.177 10.1058C94.9095 8.26995 97.1332 7.35205 99.8487 7.35205C102.424 7.35205 104.542 8.26995 106.205 10.1058C107.89 11.9416 108.733 14.2122 108.733 16.9176C108.733 17.5215 108.675 18.1616 108.558 18.8379H95.3185ZM95.2483 15.2146H104.204C103.946 13.9827 103.407 13.0648 102.588 12.4609C101.792 11.857 100.879 11.555 99.8487 11.555C98.6312 11.555 97.6251 11.8811 96.8286 12.5333C96.0329 13.1614 95.5059 14.0552 95.2483 15.2146Z" fill="black"/>
<path d="M115.586 18.8379C116.195 21.1085 117.845 22.2439 120.537 22.2439C122.269 22.2439 123.581 21.64 124.47 20.4321L128.122 22.6062C126.39 25.1908 123.838 26.4831 120.467 26.4831C117.564 26.4831 115.235 25.5773 113.478 23.7656C111.723 21.954 110.845 19.6713 110.845 16.9176C110.845 14.188 111.712 11.9174 113.443 10.1058C115.176 8.26995 117.4 7.35205 120.116 7.35205C122.691 7.35205 124.809 8.26995 126.472 10.1058C128.157 11.9416 129 14.2122 129 16.9176C129 17.5215 128.942 18.1616 128.825 18.8379H115.586ZM115.515 15.2146H124.47C124.212 13.9827 123.674 13.0648 122.854 12.4609C122.059 11.857 121.146 11.555 120.116 11.555C118.898 11.555 117.891 11.8811 117.096 12.5333C116.3 13.1614 115.773 14.0552 115.515 15.2146Z" fill="black"/>
<path d="M78.1964 12.2428V8.46606H92.1716L78.1964 12.2428Z" fill="url(#paint0_linear)"/>
<path d="M90.0081 4.51762C86.348 4.51762 86.2924 6.63483 86.348 7.60762H81.8559C81.8004 6.52039 82.0888 3.86527 83.686 1.9426C85.2833 0.0199271 88.5665 -0.117407 90.0081 0.0542603V4.51762Z" fill="black"/>
<path d="M86.3483 25.9758V12.4141H81.8562V25.9758H86.3483Z" fill="black"/>
<path d="M23.9585 10.035V0.912109H14.8316L16.2577 2.38354L5.56213 20.1879L22.3898 8.41641L23.9585 10.035Z" fill="url(#paint1_linear)"/>
<path d="M0 12.8303V19.0104V26.0732H6.84517H12.8347L9.69732 22.8361H3.13737V16.0675L0 12.8303Z" fill="#A6A6A6"/>
<path d="M14.8321 26.0734H15.6877C19.4682 26.0734 22.5328 22.9112 22.5328 19.0105V10.3291L18.8251 12.8305V16.6562C18.8251 19.7444 16.3989 22.2477 13.4059 22.2477H11.2668L14.8321 26.0734Z" fill="black"/>
<path d="M14.546 2.3833H6.84516C3.06469 2.3833 0 5.39832 0 9.29902V10.7704L3.7078 14.4491V11.6533C3.7078 8.56525 6.13401 6.06188 9.12691 6.06188H12.5494L14.546 2.3833Z" fill="black"/>
<defs>
<linearGradient id="paint0_linear" x1="92.1716" y1="8.19699" x2="90.4614" y2="15.2074" gradientUnits="userSpaceOnUse">
<stop stop-color="#FAAF40"/>
<stop offset="1" stop-color="#F16633"/>
</linearGradient>
<linearGradient id="paint1_linear" x1="23.9585" y1="-0.461226" x2="5.03295" y2="19.5484" gradientUnits="userSpaceOnUse">
<stop stop-color="#FAAF40"/>
<stop offset="1" stop-color="#F16633"/>
</linearGradient>
</defs>
</svg>
